<svg width="144" height="24" viewBox="0 0 144 24" fill="none" xmlns="http://www.w3.org/2000/svg">
<path d="M137.566 7.99963L142 12.1338L137.566 15.9996" stroke="#86BE26" stroke-width="1.6"/>
<path d="M140.716 12.1589L116.999 12.1589" stroke="#86BE26" stroke-width="1.6" stroke-linecap="square"/>
<path d="M8.99628 15.446V17H2.19228V7.76H4.12428V15.446H8.99628ZM18.0265 15.446V17H10.9005V7.76H17.8305V9.314H12.8325V11.61H16.7665V13.094H12.8325V15.446H18.0265ZM25.3099 14.746H21.7539L20.9979 17H19.0239L22.3979 7.76H24.7079L28.0819 17H26.0799L25.3099 14.746ZM24.8339 13.318L23.9659 10.714L23.5459 9.314H23.5179L23.1259 10.686L22.2299 13.318H24.8339ZM33.3924 13.458H31.6564V17H29.7524V7.76H33.8264C34.8811 7.76 35.7024 8.012 36.2904 8.516C36.8878 9.01067 37.1864 9.71067 37.1864 10.616C37.1864 11.2787 37.0231 11.834 36.6964 12.282C36.3698 12.73 35.9031 13.052 35.2964 13.248L37.7324 17H35.5624L33.3924 13.458ZM31.6564 11.988H33.5744C34.1344 11.988 34.5451 11.8807 34.8064 11.666C35.0771 11.442 35.2124 11.1013 35.2124 10.644C35.2124 10.1867 35.0771 9.85067 34.8064 9.636C34.5451 9.412 34.1344 9.3 33.5744 9.3H31.6564V11.988ZM47.5061 17H45.2941L42.0601 11.568L41.2621 10.014H41.2481L41.3041 11.652V17H39.5681V7.76H41.7661L45.0001 13.178L45.7981 14.746H45.8261L45.7701 13.108V7.76H47.5061V17ZM64.849 17H63.113V12.184L63.197 9.482H63.169L60.607 17H59.025L56.477 9.482H56.449L56.547 12.184V17H54.797V7.76H57.597L59.263 12.8L59.851 14.886H59.879L60.481 12.814L62.133 7.76H64.849V17ZM71.542 7.62C72.4474 7.62 73.2314 7.81133 73.894 8.194C74.566 8.57667 75.0794 9.12733 75.434 9.846C75.798 10.5553 75.98 11.4 75.98 12.38C75.98 13.36 75.798 14.2093 75.434 14.928C75.0794 15.6373 74.566 16.1833 73.894 16.566C73.2314 16.9487 72.4474 17.14 71.542 17.14C70.6367 17.14 69.848 16.9487 69.176 16.566C68.504 16.1833 67.986 15.6373 67.622 14.928C67.2674 14.2093 67.09 13.36 67.09 12.38C67.09 11.4 67.2674 10.5553 67.622 9.846C67.986 9.12733 68.504 8.57667 69.176 8.194C69.848 7.81133 70.6367 7.62 71.542 7.62ZM71.542 9.202C70.758 9.202 70.1514 9.47733 69.722 10.028C69.302 10.5693 69.092 11.3533 69.092 12.38C69.092 13.4067 69.302 14.1953 69.722 14.746C70.1514 15.2873 70.758 15.558 71.542 15.558C72.3167 15.558 72.914 15.2873 73.334 14.746C73.7634 14.1953 73.978 13.4067 73.978 12.38C73.978 11.3533 73.7634 10.5693 73.334 10.028C72.914 9.47733 72.3167 9.202 71.542 9.202ZM81.869 13.458H80.133V17H78.229V7.76H82.303C83.3577 7.76 84.179 8.012 84.767 8.516C85.3643 9.01067 85.663 9.71067 85.663 10.616C85.663 11.2787 85.4997 11.834 85.173 12.282C84.8463 12.73 84.3797 13.052 83.773 13.248L86.209 17H84.039L81.869 13.458ZM80.133 11.988H82.051C82.611 11.988 83.0217 11.8807 83.283 11.666C83.5537 11.442 83.689 11.1013 83.689 10.644C83.689 10.1867 83.5537 9.85067 83.283 9.636C83.0217 9.412 82.611 9.3 82.051 9.3H80.133V11.988ZM95.1706 15.446V17H88.0446V7.76H94.9746V9.314H89.9766V11.61H93.9106V13.094H89.9766V15.446H95.1706Z" fill="#86BE26"/>
</svg>
